<svg id="SvgjsSvg1001" width="288" height="288" xmlns="http://www.w3.org/2000/svg" version="1.1" xmlns:xlink="http://www.w3.org/1999/xlink" xmlns:svgjs="http://svgjs.com/svgjs"><defs id="SvgjsDefs1002"></defs><g id="SvgjsG1008"><svg xmlns="http://www.w3.org/2000/svg" enable-background="new 0 0 64 64" viewBox="0 0 64 64" width="288" height="288"><path fill="#ffffff" d="M9.5 55.6c.4.3.8.4 1.2.4.6 0 1.2-.3 1.6-.8l6.4-8c.7-.9.6-2.1-.3-2.8-.9-.7-2.1-.6-2.8.3l-6.4 8C8.5 53.6 8.7 54.9 9.5 55.6zM13.1 63.6c.4.3.8.4 1.2.4.6 0 1.2-.3 1.6-.8l12.8-16c.7-.9.6-2.1-.3-2.8-.9-.7-2.1-.6-2.8.3l-12.8 16C12.1 61.6 12.3 62.9 13.1 63.6zM29.5 55.6c.4.3.8.4 1.2.4.6 0 1.2-.3 1.6-.8l6.4-8c.7-.9.6-2.1-.3-2.8-.9-.7-2.1-.6-2.8.3l-6.4 8C28.5 53.6 28.7 54.9 29.5 55.6zM33.1 63.6c.4.3.8.4 1.2.4.6 0 1.2-.3 1.6-.8l12.8-16c.7-.9.6-2.1-.3-2.8-.9-.7-2.1-.6-2.8.3l-12.8 16C32.1 61.6 32.3 62.9 33.1 63.6zM11.8 22.8C10.1 24.7 9 27.1 9 29.8 9 35.4 13.7 40 19.5 40l27.3 0C53.5 40 59 34.6 59 28.1c0-6.5-5.3-11.7-12-11.9-2.7-5-8-8.2-13.9-8.2-1.6 0-3.2.2-4.6.7C27.1 3.7 22.5 0 17 0c-.2 0-.5 0-.7.1-.1 0-.1 0-.2 0l-2.9.2 1.2 2.6c.3.7.5 1.4.5 2.1 0 2.8-2.2 5-5 5-.7 0-1.4-.1-2-.4L5.3 8.4l-.2 2.8 0 .1C5 11.6 5 11.8 5 12 5 16.8 7.8 20.9 11.8 22.8zM33.1 12c4.8 0 9 2.8 10.8 7l.6 1.4 1.5-.1c.3 0 .5 0 .8 0 4.5 0 8.2 3.5 8.2 7.9 0 4.3-3.7 7.9-8.2 7.9l-27.3 0c-3.6 0-6.5-2.8-6.5-6.2 0-3.4 2.9-6.2 6.4-6.2l2 .1.2-1.8C22.3 16.2 27.3 12 33.1 12zM9.9 14c5 0 9-4 9-9 0-.3 0-.5 0-.7 3 .7 5.3 3.1 6 6.1-3.4 2.1-5.9 5.4-6.9 9.3-.5.1-1 .2-1.5.3-3.6-.2-6.4-2.7-7.2-6C9.4 14 9.7 14 9.9 14z" class="color202020 svgShape"></path></svg></g></svg>